<?xml version="1.0" encoding="UTF-8" standalone="no"?>
<!-- Created with Inkscape (http://www.inkscape.org/) -->

<svg
   width="1080"
   height="1080"
   viewBox="0 0 1080 1080"
   version="1.1"
   id="SVGRoot"
   xmlns="http://www.w3.org/2000/svg"
   xmlns:svg="http://www.w3.org/2000/svg">
  <defs
     id="defs132" />
  <g
     id="layer2">
    <rect
       style="fill:#ffffff;fill-opacity:1;stroke:none;stroke-width:7.53125;stroke-linecap:round;stroke-linejoin:round;stroke-dasharray:none;stroke-opacity:1;paint-order:markers fill stroke;stop-color:#000000"
       id="rect11646"
       width="877.17261"
       height="877.17261"
       x="-1053.0957"
       y="-45.983093"
       transform="matrix(-1.2312286,0,0,1.2312286,-216.60155,56.6157)" />
  </g>
  <g
     id="layer1">
    <g
       id="g5443"
       transform="matrix(1.2312286,0,0,1.2312286,-216.60155,56.6157)">
      <g
         id="g5885"
         transform="translate(-1.3914164,0.08016874)">
        <ellipse
           style="fill:none;stroke:#000000;stroke-width:17.6386;stroke-linecap:round;stroke-linejoin:round;stroke-dasharray:none;stroke-opacity:1;paint-order:markers fill stroke;stop-color:#000000"
           id="path7215"
           cx="615.90082"
           cy="392.52304"
           rx="258.6265"
           ry="258.70395" />
        <g
           id="g5890">
          <ellipse
             style="fill:none;stroke:#000000;stroke-width:11.4531;stroke-linecap:round;stroke-linejoin:round;stroke-dasharray:none;stroke-opacity:1;paint-order:markers fill stroke;stop-color:#000000"
             id="ellipse7530"
             cx="735.23669"
             cy="500.26001"
             rx="28.649473"
             ry="28.658051" />
          <path
             id="path8070"
             style="color:#000000;fill:#000000;fill-opacity:1;stroke-width:23.6222;stroke-linecap:round;stroke-linejoin:round;-inkscape-stroke:none;paint-order:markers fill stroke"
             d="m 590.06598,258.04168 c 0,29.81795 -24.02746,53.84553 -53.84547,53.84553 -29.81802,0 -53.84554,-24.02758 -53.84554,-53.84553 -0.0122,-8.40963 -11.89961,-10.92478 -12.50002,0 0,36.57348 29.77201,66.34556 66.34556,66.34556 36.57348,0 66.34555,-29.77208 66.34555,-66.34556 -0.40035,-6.33206 -10.83066,-6.9383 -12.50008,0 z" />
          <path
             id="path8557"
             style="color:#000000;fill:#000000;fill-opacity:1;stroke-width:23.6222;stroke-linecap:round;stroke-linejoin:round;-inkscape-stroke:none;paint-order:markers fill stroke"
             d="m 737.78766,258.04168 c 0,29.81795 -24.02752,53.84553 -53.84547,53.84553 -29.81801,0 -53.84554,-24.02758 -53.84554,-53.84553 -0.0122,-8.40963 -11.89961,-10.92478 -12.50002,0 0,36.57348 29.77201,66.34556 66.34556,66.34556 36.57348,0 66.34555,-29.77208 66.34555,-66.34556 -0.40035,-6.33206 -10.83065,-6.9383 -12.50008,0 z" />
        </g>
      </g>
    </g>
  </g>
</svg>
